<?xml version="1.0" encoding="utf-8"?>
<!-- Generator: Adobe Illustrator 27.5.0, SVG Export Plug-In . SVG Version: 6.00 Build 0)  -->
<svg version="1.1" id="Layer_1" xmlns="http://www.w3.org/2000/svg" xmlns:xlink="http://www.w3.org/1999/xlink" x="0px" y="0px"
	 viewBox="0 0 2372 1898" style="enable-background:new 0 0 2372 1898;" xml:space="preserve">
<g>
	<rect style="fill:#FFFFFF;" width="2371.708" height="1897.367"/>
	<g>
		<g style="opacity:0.3;">
			<polygon style="fill:#FFFFFF;" points="1677.791,1186.514 238.978,1333.736 286.013,1055.102 1724.826,907.879 			"/>
			<polygon style="fill:#FDF7F7;" points="1685.229,1178.315 246.416,1325.537 293.451,1046.903 1732.264,899.68 			"/>
			<polygon style="fill:#FAEFEF;" points="1692.667,1170.115 253.854,1317.338 300.889,1038.704 1739.702,891.481 			"/>
			<polygon style="fill:#F8E6E6;" points="1700.105,1161.916 261.292,1309.139 308.327,1030.505 1747.14,883.282 			"/>
			<polygon style="fill:#F5DEDE;" points="1707.543,1153.717 268.73,1300.94 315.765,1022.305 1754.578,875.083 			"/>
			<polygon style="fill:#F3D6D6;" points="1714.981,1145.518 276.168,1292.741 323.203,1014.106 1762.016,866.884 			"/>
			<polygon style="fill:#F0CECE;" points="1722.419,1137.319 283.606,1284.542 330.641,1005.907 1769.454,858.685 			"/>
			<polygon style="fill:#EEC5C5;" points="1729.857,1129.12 291.044,1276.342 338.079,997.708 1776.892,850.485 			"/>
			<polygon style="fill:#ECBDBD;" points="1737.295,1120.921 298.482,1268.143 345.517,989.509 1784.33,842.286 			"/>
			<polygon style="fill:#E9B5B5;" points="1744.733,1112.722 305.92,1259.944 352.955,981.31 1791.769,834.087 			"/>
			<polygon style="fill:#E7ADAD;" points="1752.172,1104.523 313.358,1251.745 360.393,973.111 1799.207,825.888 			"/>
			<polygon style="fill:#E4A5A5;" points="1759.609,1096.323 320.796,1243.546 367.831,964.911 1806.645,817.689 			"/>
			<polygon style="fill:#E29C9C;" points="1767.047,1088.124 328.234,1235.347 375.269,956.712 1814.083,809.49 			"/>
			<polygon style="fill:#E09494;" points="1774.485,1079.925 335.672,1227.148 382.707,948.513 1821.521,801.291 			"/>
			<polygon style="fill:#DD8C8C;" points="1781.924,1071.726 343.11,1218.949 390.145,940.314 1828.959,793.092 			"/>
			<polygon style="fill:#DB8484;" points="1789.362,1063.527 350.548,1210.75 397.584,932.115 1836.397,784.893 			"/>
			<polygon style="fill:#D87B7B;" points="1796.8,1055.328 357.986,1202.551 405.022,923.916 1843.835,776.693 			"/>
			<polygon style="fill:#D67373;" points="1804.238,1047.129 365.424,1194.351 412.46,915.717 1851.273,768.494 			"/>
			<polygon style="fill:#D36B6B;" points="1811.676,1038.93 372.862,1186.152 419.898,907.518 1858.711,760.295 			"/>
			<polygon style="fill:#D16363;" points="1819.114,1030.731 380.3,1177.953 427.336,899.319 1866.149,752.096 			"/>
			<polygon style="fill:#CF5A5A;" points="1826.552,1022.532 387.738,1169.754 434.774,891.12 1873.587,743.897 			"/>
			<polygon style="fill:#CC5252;" points="1833.99,1014.333 395.176,1161.555 442.212,882.92 1881.025,735.698 			"/>
			<polygon style="fill:#CA4A4A;" points="1841.428,1006.133 402.615,1153.356 449.65,874.721 1888.463,727.499 			"/>
			<polygon style="fill:#C74242;" points="1848.866,997.934 410.052,1145.157 457.088,866.522 1895.901,719.3 			"/>
			<polygon style="fill:#C53A3A;" points="1856.304,989.735 417.49,1136.958 464.526,858.323 1903.339,711.101 			"/>
			<polygon style="fill:#C33131;" points="1863.742,981.536 424.929,1128.759 471.964,850.124 1910.777,702.901 			"/>
			<polygon style="fill:#C02929;" points="1871.18,973.337 432.367,1120.56 479.402,841.925 1918.215,694.702 			"/>
			<polygon style="fill:#BE2121;" points="1878.618,965.138 439.805,1112.36 486.84,833.726 1925.653,686.503 			"/>
			<polygon style="fill:#BB1919;" points="1886.056,956.939 447.243,1104.161 494.278,825.526 1933.092,678.304 			"/>
			<polygon style="fill:#B91010;" points="1893.494,948.74 454.681,1095.962 501.716,817.327 1940.53,670.105 			"/>
			<polygon style="fill:#B60808;" points="1900.932,940.541 462.119,1087.763 509.154,809.128 1947.968,661.906 			"/>
			<polygon style="fill:#B40000;" points="1908.37,932.342 469.557,1079.564 516.592,800.929 1955.406,653.707 			"/>
		</g>
		<g>
			
				<linearGradient id="SVGID_1_" gradientUnits="userSpaceOnUse" x1="410.1191" y1="1319.3823" x2="1955.9268" y2="1319.3823" gradientTransform="matrix(1 -0.1023 0 1 0 -360.2204)">
				<stop  offset="0.2277" style="stop-color:#F70000"/>
				<stop  offset="0.4912" style="stop-color:#E20000"/>
				<stop  offset="1" style="stop-color:#B00000"/>
			</linearGradient>
			<polygon style="fill:url(#SVGID_1_);" points="470.06,1077.978 1908.891,930.754 1955.927,652.113 1895.967,598.301 
				457.154,745.523 410.119,1024.158 			"/>
			
				<linearGradient id="SVGID_00000029727021449591175930000002664882942035192727_" gradientUnits="userSpaceOnUse" x1="1310.2312" y1="1083.7457" x2="504.2702" y2="2138.2422" gradientTransform="matrix(1 -0.1023 0 1 0 -360.2204)">
				<stop  offset="0.2277" style="stop-color:#F70000"/>
				<stop  offset="0.4912" style="stop-color:#E20000"/>
				<stop  offset="1" style="stop-color:#B00000"/>
			</linearGradient>
			<polygon style="fill:url(#SVGID_00000029727021449591175930000002664882942035192727_);" points="1848.932,876.935 
				410.119,1024.158 457.154,745.523 1895.967,598.301 			"/>
		</g>
		<g>
			<path style="fill:#FFFFFF;" d="M610.576,864.922l-0.219,1.319c11.439-0.161,19.121,2.812,23.045,8.904
				c3.925,6.099,4.851,15.46,2.792,28.096c-2.483,15.119-8.35,25.94-17.622,32.451c-9.271,6.511-23.695,10.764-43.286,12.764
				c-31.776,3.255-55.696,5.121-71.755,5.61l24.886-152.002c14.99-2.689,36.704-5.494,65.147-8.402
				c21.328-2.187,35.643-0.94,42.938,3.732c7.296,4.664,9.677,14.707,7.155,30.135c-1.802,11.015-5.301,19.533-10.494,25.549
				C627.972,859.093,620.438,863.044,610.576,864.922z M554.687,918.727l17.416-1.782c6.53-0.669,10.989-2.207,13.382-4.62
				c2.387-2.413,4.15-7.064,5.276-13.974c1.158-7.045,0.901-11.567-0.772-13.562c-1.673-1.994-5.842-2.65-12.52-1.969l-17.191,1.763
				L554.687,918.727z M564.858,856.597l16.753-1.711c5.52-0.567,9.303-1.891,11.362-3.976c2.046-2.091,3.552-6.074,4.516-11.941
				c0.959-5.88,0.683-9.6-0.843-11.182c-1.531-1.582-5.121-2.072-10.776-1.493l-16.329,1.667L564.858,856.597z"/>
			<path style="fill:#FFFFFF;" d="M812.657,772.973l-14.598,89.222c-3.97,24.242-11.549,41.767-22.73,52.582
				c-11.188,10.828-28.534,17.435-52.042,19.841c-25.394,2.599-42.436-0.495-51.129-9.284c-8.692-8.782-11.053-25.297-7.083-49.526
				l14.604-89.222l47.23-4.838l-14.604,89.222c-1.995,12.198-2.021,20.176-0.065,23.946c1.949,3.77,6.762,5.263,14.456,4.478
				c7.547-0.772,12.952-3.313,16.232-7.617c3.268-4.304,5.906-12.552,7.9-24.744l14.604-89.222L812.657,772.973z"/>
			<path style="fill:#FFFFFF;" d="M909.362,865.978l-7.752,47.364l-47.23,4.825l7.675-46.92l-32.638-99.986l48.536-4.967
				l11.111,45.872c0.778,3.101,1.132,10.062,1.074,20.897l2.831-0.283c3.494-10.899,6.196-18.259,8.1-22.061l26.507-49.501
				l48.535-4.967L909.362,865.978z"/>
			<path style="fill:#FFFFFF;" d="M1035.095,786.824l4.207-34.87c17.938-5.012,36.923-8.544,56.951-10.596
				c18.278-1.866,31.647-0.528,40.108,4.021c8.454,4.548,11.516,13.948,9.187,28.192c-1.37,8.37-3.963,15.679-7.759,21.913
				c-3.809,6.24-11.285,14.701-22.453,25.368l-41.028,37.559c6.086-2.355,12.887-3.77,20.388-4.253l41.78-4.278l-6.562,40.094
				l-116.436,11.915l3.886-23.792c1.254-7.63,4.478-14.244,9.676-19.829l36.427-34.278c20.8-19.886,31.718-32.992,32.747-39.31
				c0.341-2.052-0.36-3.243-2.085-3.577c-1.737-0.322-5.211-0.219-10.435,0.315C1065.558,783.279,1049.365,785.081,1035.095,786.824
				z"/>
			<path style="fill:#FFFFFF;" d="M1351.651,781.298l-14.315,87.459l-34.819,3.565l-1.583-15.222
				c-4.902,5.559-11.246,10.538-19.03,14.946c-7.785,4.407-16.316,7.083-25.606,8.036c-17.551,1.795-29.26-2.966-35.115-14.283
				c-5.848-11.31-6.447-31.216-1.782-59.711c4.761-29.073,13.401-50.073,25.934-62.979c12.52-12.906,31.776-20.69,57.748-23.342
				c20.897-2.142,38.319-1.827,52.28,0.926l-9.111,34.729c-22.003,1.956-38.525,3.506-49.552,4.632
				c-8.416,0.862-14.495,4.015-18.24,9.451c-3.738,5.443-6.89,15.943-9.438,31.505c-2.496,15.28-2.863,25.349-1.094,30.225
				c1.776,4.871,6.427,6.923,13.974,6.151c5.082-0.521,10.59-1.518,16.541-2.998l7.933-48.458L1351.651,781.298z"/>
			<path style="fill:#FFFFFF;" d="M1481.386,818.922l-3.346,33.481c-14.823,3.397-41.021,7.02-78.6,10.86
				c-10.301,1.055-18.233-1.274-23.792-6.987c-5.559-5.713-7.489-13.704-5.81-23.991l13.845-84.596
				c1.685-10.275,6.35-18.954,14-26.018c7.643-7.064,16.624-11.124,26.925-12.179c37.579-3.841,63.468-5.552,77.668-5.128
				l-7.695,33.931l-55.066,5.636c-2.754,0.277-5.057,1.235-6.891,2.869c-1.84,1.635-2.947,3.622-3.326,5.971l-2.419,14.759
				l56.153-5.745l-5.192,31.725l-56.153,5.745l-2.992,18.285c-0.386,2.355,0.09,4.182,1.454,5.488
				c1.351,1.307,3.41,1.814,6.17,1.532L1481.386,818.922z"/>
			<path style="fill:#FFFFFF;" d="M1644.968,722.906l-41.999,4.297l-19.043,116.321l-47.224,4.832l19.031-116.321l-41.999,4.298
				l5.842-35.688l131.234-13.434L1644.968,722.906z"/>
			<path style="fill:#FFFFFF;" d="M1772.407,824.236l-47.011,4.813l15.576-95.167c1.326-8.081,2.973-14.682,4.954-19.79
				l-35.733,10.371l-0.643-28.746l40.725-18.677l47.011-4.813L1772.407,824.236z"/>
		</g>
		<g>
			<path style="fill:#002E4D;" d="M787.489,1166.803l-132.302,13.536c-7.322,0.746-13.395,3.191-18.195,7.321
				c-4.825,4.143-7.714,9.175-8.685,15.093l-7.367,45.01l135.596-13.871l-13.099,80.009l-135.59,13.871l-24.287,148.36
				l-119.12,12.192l48.845-298.387c4.239-25.921,16.097-47.808,35.572-65.649c19.462-17.834,42.379-28.103,68.731-30.799
				c92.221-9.438,155.29-13.337,189.214-11.709L787.489,1166.803z"/>
			<path style="fill:#002E4D;" d="M1116.043,1421.654l-124.614,12.751l-6.06-111.379c-0.495-10.14-2.747-16.74-6.742-19.803
				c-4.008-3.043-11.124-4.053-21.373-2.998l-36.781,3.757l-22.917,140.029l-116.925,11.961l62.754-383.396
				c37.933-7.514,91.847-14.861,161.755-22.016c57.086-5.842,96.589-1.499,118.508,13.009c21.913,14.514,29.286,43.626,22.132,87.33
				c-9.091,55.568-39.683,88.566-91.764,98.988l-0.547,3.333c33.668,0.933,51.071,18.825,52.209,53.67L1116.043,1421.654z
				 M934.395,1218.967l41.169-4.207c17.197-1.763,29.055-5.52,35.585-11.298c6.518-5.751,11.085-16.605,13.691-32.541
				c2.606-15.917,1.493-26.185-3.32-30.798c-4.832-4.601-15.84-6.029-33.043-4.266l-41.169,4.214L934.395,1218.967z"/>
			<path style="fill:#002E4D;" d="M1444.225,1299.568l-8.428,84.449c-37.386,8.57-103.479,17.692-198.253,27.388
				c-25.993,2.657-45.988-3.21-60.001-17.628c-14.019-14.405-18.895-34.574-14.656-60.508l34.929-213.367
				c4.24-25.927,16.007-47.802,35.295-65.623c19.288-17.821,41.922-28.057,67.914-30.714
				c94.781-9.702,160.082-14.006,195.892-12.945l-19.41,85.581l-138.877,14.205c-6.961,0.714-12.751,3.133-17.377,7.244
				c-4.645,4.118-7.437,9.149-8.402,15.068l-6.099,37.225l141.631-14.489l-13.099,80.01l-141.63,14.494l-7.547,46.123
				c-0.972,5.925,0.25,10.538,3.674,13.826c3.422,3.3,8.608,4.581,15.563,3.867L1444.225,1299.568z"/>
			<path style="fill:#002E4D;" d="M1771.397,1266.088l-8.422,84.454c-37.392,8.563-103.479,17.686-198.26,27.389
				c-25.985,2.657-45.988-3.217-60-17.628c-14.019-14.411-18.896-34.575-14.656-60.516l34.928-213.366
				c4.24-25.921,16-47.802,35.302-65.617c19.289-17.821,41.922-28.057,67.914-30.72c94.775-9.696,160.07-14,195.886-12.938
				l-19.404,85.574l-138.884,14.212c-6.961,0.714-12.751,3.133-17.377,7.238c-4.639,4.124-7.431,9.149-8.402,15.068l-6.093,37.225
				l141.624-14.489l-13.092,80.016l-141.631,14.495l-7.547,46.116c-0.972,5.932,0.244,10.538,3.673,13.832
				c3.41,3.294,8.596,4.581,15.557,3.867L1771.397,1266.088z"/>
		</g>
		<g>
			<path style="fill:#002E4D;" d="M585.703,657.668l-16.535-6.079c-6.755-2.496-11.31-5.681-13.665-9.542
				c-2.355-3.86-2.985-9.122-1.891-15.801c1.666-10.184,5.546-17.461,11.632-21.849c6.093-4.375,15.988-7.263,29.698-8.666
				c13.099-1.339,23.728-0.92,31.898,1.267l-4.684,18.478c-10.384,0.888-20.903,1.879-31.577,2.973
				c-3.294,0.335-5.546,0.785-6.742,1.338c-1.197,0.553-1.917,1.538-2.142,2.94c-0.2,1.229,0.167,2.207,1.119,2.928
				c0.946,0.727,2.837,1.543,5.674,2.464l15.139,5.179c6.845,2.503,11.439,5.7,13.787,9.599c2.348,3.912,2.966,9.239,1.859,16.001
				c-1.686,10.268-5.508,17.744-11.478,22.408c-5.958,4.671-15.891,7.714-29.762,9.136c-11.709,1.197-23.045,0.888-34.008-0.926
				l4.967-20.188c17.101-1.319,27.955-2.214,32.554-2.683c3.552-0.366,5.958-0.829,7.193-1.389c1.248-0.56,1.969-1.447,2.168-2.677
				c0.2-1.229-0.045-2.194-0.74-2.901C589.473,658.968,587.981,658.299,585.703,657.668z"/>
			<path style="fill:#002E4D;" d="M652.369,681.023l14.874-90.883c8.988-1.776,21.727-3.513,38.21-5.198
				c14.309-1.467,23.734-0.309,28.276,3.448c4.549,3.77,5.842,11.671,3.873,23.695c-1.943,11.857-5.7,20.182-11.259,24.975
				c-5.558,4.806-14.591,7.842-27.072,9.117c-4.691,0.476-9.2,0.682-13.536,0.605l-5.134,31.351L652.369,681.023z M688.899,627.43
				l9.111-0.939c3.815-0.386,6.491-1.351,8.022-2.889c1.525-1.538,2.638-4.42,3.326-8.627c0.708-4.298,0.528-7.116-0.534-8.428
				c-1.062-1.313-3.507-1.776-7.328-1.39l-9.104,0.94L688.899,627.43z"/>
			<path style="fill:#002E4D;" d="M833.078,641.552l-2.001,20.015c-8.859,2.033-24.526,4.195-46.985,6.492
				c-6.164,0.63-10.905-0.766-14.232-4.175c-3.32-3.417-4.478-8.197-3.468-14.341l8.281-50.575
				c1.003-6.151,3.789-11.336,8.364-15.557c4.568-4.22,9.934-6.652,16.097-7.282c22.466-2.291,37.945-3.32,46.425-3.063
				l-4.593,20.279l-32.921,3.371c-1.647,0.167-3.024,0.746-4.118,1.718c-1.1,0.978-1.763,2.168-1.994,3.571l-1.441,8.827
				l33.571-3.436l-3.108,18.966l-33.571,3.436l-1.788,10.924c-0.232,1.409,0.064,2.502,0.875,3.281
				c0.804,0.785,2.033,1.081,3.68,0.914L833.078,641.552z"/>
			<path style="fill:#002E4D;" d="M939.092,628.498l-1.326,20.6c-8.794,3.745-19.532,6.273-32.194,7.566
				c-14.919,1.531-24.859-0.9-29.826-7.309c-4.967-6.395-6.035-18.246-3.204-35.539c2.831-17.294,7.881-29.769,15.145-37.425
				c7.27-7.649,18.362-12.23,33.275-13.762c11.194-1.145,20.838-0.965,28.958,0.534l-5.488,21.019
				c-12.121,1.068-21.257,1.917-27.414,2.548c-4.42,0.45-7.624,2.271-9.592,5.449c-1.969,3.185-3.712,9.38-5.218,18.599
				c-1.512,9.214-1.776,15.267-0.791,18.143c0.971,2.882,3.679,4.092,8.099,3.642C922.442,631.245,932.298,629.888,939.092,628.498z
				"/>
			<path style="fill:#002E4D;" d="M1001.858,645.264l-27.98,2.857l14.875-90.875l27.98-2.863L1001.858,645.264z"/>
			<path style="fill:#002E4D;" d="M1096.015,616.332l-24.589,2.516l-7.765,20.086l-28.758,2.946l36.954-85.883
				c0.965-2.258,2.432-4.15,4.394-5.693c1.956-1.538,4.06-2.426,6.318-2.658l25.632-2.618c2.258-0.232,4.137,0.244,5.655,1.428
				c1.506,1.184,2.388,2.843,2.638,4.979l9.619,81.116l-28.752,2.94L1096.015,616.332z M1094.742,596.78l-1.235-19.043
				c-0.109-4.041-0.058-7.456,0.142-10.243l-3.513,0.36c-1.19,4.182-2.284,7.701-3.262,10.564l-7.617,19.945L1094.742,596.78z"/>
			<path style="fill:#002E4D;" d="M1201.882,535.442l-10.391,63.481c-0.231,1.409,0.084,2.49,0.933,3.268
				c0.856,0.779,2.104,1.081,3.757,0.907l30.187-3.088l-2.194,21.205c-9.136,2.149-23.85,4.259-44.148,6.331
				c-6.421,0.656-11.271-0.721-14.546-4.143c-3.282-3.423-4.413-8.203-3.41-14.348l11.574-70.732L1201.882,535.442z"/>
			<path style="fill:#002E4D;" d="M1365.084,516.925c10.674-1.087,18.716-0.592,24.133,1.48c5.417,2.084,8.956,6.382,10.616,12.905
				c1.66,6.518,1.467,16.058-0.592,28.611c-2.052,12.565-5.025,22.383-8.917,29.466c-3.886,7.09-8.975,12.276-15.274,15.55
				c-6.292,3.275-14.772,5.462-25.438,6.55c-10.59,1.087-18.587,0.585-24.004-1.493c-5.417-2.072-8.955-6.376-10.622-12.9
				c-1.66-6.517-1.46-16.052,0.592-28.611c2.059-12.558,5.031-22.376,8.917-29.466c3.886-7.09,8.982-12.276,15.274-15.55
				C1346.06,520.193,1354.501,518.013,1365.084,516.925z M1370.457,542.344c-1.042-3.307-3.989-4.709-8.84-4.214
				c-4.864,0.502-8.377,2.561-10.545,6.202c-2.175,3.629-4.118,10.667-5.829,21.115c-1.705,10.448-2.04,17.326-1.01,20.626
				c1.042,3.307,3.989,4.71,8.847,4.208c4.857-0.489,8.37-2.554,10.545-6.189c2.174-3.629,4.118-10.674,5.822-21.122
				C1371.158,552.523,1371.492,545.645,1370.457,542.344z"/>
			<path style="fill:#002E4D;" d="M1506.367,525.263l-31.357,3.204c-1.731,0.18-3.172,0.759-4.317,1.743
				c-1.138,0.978-1.827,2.169-2.052,3.577l-1.744,10.661l32.137-3.282l-3.108,18.966l-32.136,3.281l-5.759,35.167l-28.231,2.895
				l11.574-70.732c1.01-6.144,3.815-11.33,8.435-15.556c4.613-4.227,10.036-6.665,16.29-7.296c21.862-2.239,36.801-3.166,44.85-2.78
				L1506.367,525.263z"/>
			<path style="fill:#002E4D;" d="M1608.38,514.828l-31.364,3.204c-1.731,0.18-3.172,0.76-4.311,1.737
				c-1.139,0.984-1.828,2.175-2.059,3.577l-1.744,10.667l32.137-3.287l-3.101,18.966l-32.142,3.288l-5.752,35.167l-28.237,2.889
				l11.574-70.726c1.01-6.144,3.822-11.336,8.441-15.556c4.606-4.233,10.036-6.665,16.29-7.302
				c21.855-2.239,36.801-3.159,44.843-2.773L1608.38,514.828z"/>
			<path style="fill:#002E4D;" d="M1703.412,552.497l-2.001,20.015c-8.859,2.033-24.525,4.195-46.991,6.498
				c-6.157,0.631-10.905-0.772-14.225-4.182c-3.32-3.41-4.478-8.196-3.474-14.34l8.28-50.575c1.01-6.151,3.796-11.33,8.37-15.556
				c4.568-4.221,9.933-6.646,16.097-7.276c22.466-2.297,37.946-3.32,46.426-3.069l-4.594,20.279l-32.921,3.371
				c-1.647,0.167-3.024,0.746-4.124,1.724c-1.094,0.972-1.756,2.161-1.988,3.564l-1.441,8.827l33.565-3.436l-3.101,18.966
				l-33.571,3.436l-1.789,10.924c-0.232,1.409,0.064,2.503,0.868,3.281c0.811,0.785,2.04,1.088,3.687,0.92L1703.412,552.497z"/>
			<path style="fill:#002E4D;" d="M1818.446,561.703l-29.537,3.024l-1.435-26.404c-0.116-2.406-0.65-3.963-1.596-4.683
				c-0.952-0.727-2.638-0.965-5.07-0.721l-8.711,0.894l-5.437,33.191l-27.716,2.838l14.875-90.876
				c8.994-1.789,21.772-3.525,38.338-5.218c13.536-1.383,22.904-0.354,28.09,3.082c5.199,3.436,6.948,10.345,5.25,20.704
				c-2.156,13.163-9.406,20.986-21.746,23.457l-0.128,0.792c7.971,0.225,12.095,4.458,12.365,12.719L1818.446,561.703z
				 M1775.392,513.663l9.76-0.997c4.079-0.418,6.891-1.306,8.434-2.677c1.544-1.364,2.625-3.937,3.249-7.714
				c0.611-3.776,0.354-6.209-0.791-7.302c-1.146-1.087-3.757-1.428-7.83-1.003l-9.76,0.991L1775.392,513.663z"/>
		</g>
	</g>
	<g>
		<g>
			<path style="fill:#FF051F;" d="M1953.975,398.212c-31.232,8.625-38.223,15.616-46.849,46.849
				c-8.625-31.232-15.616-38.224-46.849-46.849c31.233-8.624,38.224-15.616,46.849-46.848
				C1915.751,382.596,1922.743,389.588,1953.975,398.212z"/>
		</g>
		<g>
			<path style="fill:#FF051F;" d="M442.133,1261.983c-52.705,14.554-64.503,26.352-79.057,79.057
				c-14.554-52.705-26.352-64.503-79.057-79.057c52.705-14.554,64.503-26.352,79.057-79.057
				C377.63,1235.63,389.429,1247.429,442.133,1261.983z"/>
		</g>
		<g>
			<path style="fill:#FF051F;" d="M396.749,1124.365c-14.64,4.043-17.918,7.32-21.961,21.961
				c-4.043-14.641-7.32-17.918-21.96-21.961c14.64-4.042,17.918-7.32,21.96-21.96
				C378.831,1117.045,382.109,1120.323,396.749,1124.365z"/>
		</g>
		<g>
			<path style="fill:#FF051F;" d="M2015.219,1190.246c-65.881,18.193-80.628,32.94-98.821,98.821
				c-18.192-65.881-32.94-80.628-98.821-98.821c65.881-18.192,80.629-32.94,98.821-98.821
				C1934.591,1157.305,1949.339,1172.053,2015.219,1190.246z"/>
		</g>
		<g>
			<path style="fill:#FF051F;" d="M1988.135,1045.308c-17.568,4.852-21.501,8.785-26.352,26.352
				c-4.852-17.568-8.784-21.501-26.352-26.352c17.568-4.851,21.501-8.784,26.352-26.352
				C1966.634,1036.524,1970.567,1040.457,1988.135,1045.308z"/>
		</g>
		<g>
			<path style="fill:#FF051F;" d="M480.197,611.959c-11.712,3.234-14.334,5.855-17.568,17.568
				c-3.234-11.712-5.856-14.334-17.569-17.568c11.712-3.235,14.334-5.856,17.569-17.568
				C465.863,606.103,468.485,608.725,480.197,611.959z"/>
		</g>
		<g>
			<path style="fill:#FF051F;" d="M1453.037,1584.067c-42.456,11.724-51.961,21.228-63.685,63.685
				c-11.724-42.457-21.228-51.961-63.684-63.685c42.456-11.724,51.961-21.228,63.684-63.685
				C1401.076,1562.839,1410.581,1572.342,1453.037,1584.067z"/>
		</g>
		<g>
			<path style="fill:#002E4D;" d="M1469.141,329.404c-45.385,12.533-55.545,22.692-68.077,68.077
				c-12.532-45.385-22.692-55.544-68.077-68.077c45.385-12.533,55.544-22.693,68.077-68.077
				C1413.597,306.711,1423.757,316.871,1469.141,329.404z"/>
		</g>
		<g>
			<path style="fill:#002E4D;" d="M1177.07,1521.114c-20.496,5.66-25.084,10.248-30.744,30.744
				c-5.661-20.496-10.249-25.084-30.745-30.744c20.496-5.661,25.084-10.248,30.745-30.745
				C1151.985,1510.866,1156.573,1515.454,1177.07,1521.114z"/>
		</g>
		<g>
			<path style="fill:#002E4D;" d="M642.703,1604.563c-38.065,10.511-46.586,19.032-57.097,57.097
				c-10.511-38.065-19.032-46.586-57.096-57.097c38.065-10.511,46.586-19.032,57.096-57.096
				C596.118,1585.53,604.639,1594.052,642.703,1604.563z"/>
		</g>
		<g>
			<path style="fill:#002E4D;" d="M330.136,859.378c-10.249,2.83-12.542,5.124-15.373,15.372
				c-2.829-10.248-5.124-12.542-15.372-15.372c10.248-2.83,12.542-5.124,15.372-15.372
				C317.594,854.254,319.887,856.548,330.136,859.378z"/>
		</g>
		<g>
			<path style="fill:#002E4D;" d="M882.802,447.989c-32.208,8.894-39.419,16.104-48.313,48.312
				c-8.894-32.208-16.104-39.418-48.312-48.312c32.208-8.895,39.419-16.104,48.312-48.313
				C843.383,431.885,850.594,439.095,882.802,447.989z"/>
		</g>
		<g>
			<path style="fill:#002E4D;" d="M2072.316,830.098c-16.104,4.447-19.709,8.052-24.156,24.156
				c-4.447-16.104-8.052-19.709-24.156-24.156c16.104-4.447,19.709-8.053,24.156-24.156
				C2052.607,822.045,2056.212,825.651,2072.316,830.098z"/>
		</g>
	</g>
</g>
</svg>
